<svg width="16" height="16" viewBox="0 0 16 16" fill="none" xmlns="http://www.w3.org/2000/svg">
<g clip-path="url(#clip0_8_817)">
<path d="M12.7158 13.8701L12.5898 13.9941L12.7168 14.1201L12.5898 14.2451L12.7168 14.3711L12.5908 14.4961L12.7178 14.6221L12.5908 14.7471L12.7178 14.873L12.5918 14.998L12.7188 15.124L12.5918 15.249L12.7188 15.375L12.7158 15.377L12.7422 15.4043L12.8711 15.2803L12.9951 15.4062L13.124 15.2832L13.249 15.4092L13.3779 15.2852L13.502 15.4111L13.6309 15.2881L13.7549 15.4141L13.8838 15.291L14.2383 15.6494L13.876 16L13.75 15.8721L13.6221 15.9971L13.4971 15.8701L13.3691 15.9951L13.2432 15.8672L13.1162 15.9922L12.9912 15.8652L12.8633 15.9902L12.7373 15.8623L12.6094 15.9873L12.4844 15.8604L12.3574 15.9844L12.0029 15.6279L12.1309 15.502L12.0029 15.375L12.1279 15.25L12.002 15.125L12.1279 14.999L12.002 14.874L12.127 14.748L12.001 14.623L12.127 14.4971L12.001 14.3721L12.126 14.2461L12 14.1211L12.126 13.9951L12 13.8701L12.3574 13.5156L12.7158 13.8701ZM13.2217 13.001H13.4746V13.251H13.7285V13.502H13.9814V13.7529H14.2344V14.0039H14.4883V14.2549H14.7412V14.5059H14.9941V14.7568H15.248V15.2578H14.7412V15.0068H14.4883V14.7568H14.2344V14.5059H13.9814V14.2549H13.7285V14.0039H13.4746V13.7529H13.2217V13.502H12.9688V13.251H12.7158V12.75H13.2217V13.001ZM15.9668 12.3506L15.8398 12.4775L15.9707 12.6025L15.8457 12.7305L15.9756 12.8535L15.8506 12.9805L15.9805 13.1045L15.8555 13.2324L15.9854 13.3555L15.8613 13.4824L15.9902 13.6055L15.8662 13.7334L15.9951 13.8564L15.8701 13.9844L16 14.1074L15.6494 14.4688L15.2842 14.1211L15.4082 13.9922L15.2793 13.8701L15.4023 13.7422L15.2744 13.6201L15.3975 13.4912L15.2695 13.3691L15.3926 13.2402L15.2646 13.1182L15.3887 12.9893L15.2598 12.8672L15.3838 12.7383L15.2549 12.6162L15.2568 12.6133L15.2295 12.5859L15.1045 12.7129L14.9766 12.5879L14.8516 12.7148L14.7236 12.5898L14.5986 12.7168L14.4697 12.5918L14.3447 12.7188L14.2168 12.5938L14.0918 12.7207L13.7305 12.3682L14.0859 12.0107L14.2129 12.1348L14.3398 12.0088L14.4668 12.1328L14.5928 12.0078L14.7197 12.1318L14.8457 12.0059L14.9736 12.1299L15.0996 12.0039L15.2266 12.127L15.3525 12.002L15.4795 12.126L15.6045 12L15.9668 12.3506Z" fill="#666666"/>
</g>
<g clip-path="url(#clip1_8_817)">
<path d="M12.7158 7.87012L12.5898 7.99414L12.7168 8.12012L12.5898 8.24512L12.7168 8.37109L12.5908 8.49609L12.7178 8.62207L12.5908 8.74707L12.7178 8.87305L12.5918 8.99805L12.7188 9.12402L12.5918 9.24902L12.7188 9.375L12.7158 9.37695L12.7422 9.4043L12.8711 9.28027L12.9951 9.40625L13.124 9.2832L13.249 9.40918L13.3779 9.28516L13.502 9.41113L13.6309 9.28809L13.7549 9.41406L13.8838 9.29102L14.2383 9.64941L13.876 10L13.75 9.87207L13.6221 9.99707L13.4971 9.87012L13.3691 9.99512L13.2432 9.86719L13.1162 9.99219L12.9912 9.86523L12.8633 9.99023L12.7373 9.8623L12.6094 9.9873L12.4844 9.86035L12.3574 9.98438L12.0029 9.62793L12.1309 9.50195L12.0029 9.375L12.1279 9.25L12.002 9.125L12.1279 8.99902L12.002 8.87402L12.127 8.74805L12.001 8.62305L12.127 8.49707L12.001 8.37207L12.126 8.24609L12 8.12109L12.126 7.99512L12 7.87012L12.3574 7.51562L12.7158 7.87012ZM13.2217 7.00098H13.4746V7.25098H13.7285V7.50195H13.9814V7.75293H14.2344V8.00391H14.4883V8.25488H14.7412V8.50586H14.9941V8.75684H15.248V9.25781H14.7412V9.00684H14.4883V8.75684H14.2344V8.50586H13.9814V8.25488H13.7285V8.00391H13.4746V7.75293H13.2217V7.50195H12.9688V7.25098H12.7158V6.75H13.2217V7.00098ZM15.9668 6.35059L15.8398 6.47754L15.9707 6.60254L15.8457 6.73047L15.9756 6.85352L15.8506 6.98047L15.9805 7.10449L15.8555 7.23242L15.9854 7.35547L15.8613 7.48242L15.9902 7.60547L15.8662 7.7334L15.9951 7.85645L15.8701 7.98438L16 8.10742L15.6494 8.46875L15.2842 8.12109L15.4082 7.99219L15.2793 7.87012L15.4023 7.74219L15.2744 7.62012L15.3975 7.49121L15.2695 7.36914L15.3926 7.24023L15.2646 7.11816L15.3887 6.98926L15.2598 6.86719L15.3838 6.73828L15.2549 6.61621L15.2568 6.61328L15.2295 6.58594L15.1045 6.71289L14.9766 6.58789L14.8516 6.71484L14.7236 6.58984L14.5986 6.7168L14.4697 6.5918L14.3447 6.71875L14.2168 6.59375L14.0918 6.7207L13.7305 6.36816L14.0859 6.01074L14.2129 6.13477L14.3398 6.00879L14.4668 6.13281L14.5928 6.00781L14.7197 6.13184L14.8457 6.00586L14.9736 6.12988L15.0996 6.00391L15.2266 6.12695L15.3525 6.00195L15.4795 6.12598L15.6045 6L15.9668 6.35059Z" fill="#666666"/>
</g>
<g clip-path="url(#clip2_8_817)">
<path d="M0.71582 1.87012L0.589844 1.99414L0.716797 2.12012L0.589844 2.24512L0.716797 2.37109L0.59082 2.49609L0.717773 2.62207L0.59082 2.74707L0.717773 2.87305L0.591797 2.99805L0.71875 3.12402L0.591797 3.24902L0.71875 3.375L0.71582 3.37695L0.742188 3.4043L0.871094 3.28027L0.995117 3.40625L1.12402 3.2832L1.24902 3.40918L1.37793 3.28516L1.50195 3.41113L1.63086 3.28809L1.75488 3.41406L1.88379 3.29102L2.23828 3.64941L1.87598 4L1.75 3.87207L1.62207 3.99707L1.49707 3.87012L1.36914 3.99512L1.24316 3.86719L1.11621 3.99219L0.991211 3.86523L0.863281 3.99023L0.737305 3.8623L0.609375 3.9873L0.484375 3.86035L0.357422 3.98438L0.00292969 3.62793L0.130859 3.50195L0.00292969 3.375L0.12793 3.25L0.00195312 3.125L0.12793 2.99902L0.00195312 2.87402L0.126953 2.74805L0.000976562 2.62305L0.126953 2.49707L0.000976562 2.37207L0.125977 2.24609L0 2.12109L0.125977 1.99512L0 1.87012L0.357422 1.51562L0.71582 1.87012ZM1.22168 1.00098H1.47461V1.25098H1.72852V1.50195H1.98145V1.75293H2.23438V2.00391H2.48828V2.25488H2.74121V2.50586H2.99414V2.75684H3.24805V3.25781H2.74121V3.00684H2.48828V2.75684H2.23438V2.50586H1.98145V2.25488H1.72852V2.00391H1.47461V1.75293H1.22168V1.50195H0.96875V1.25098H0.71582V0.75H1.22168V1.00098ZM3.9668 0.350586L3.83984 0.477539L3.9707 0.602539L3.8457 0.730469L3.97559 0.853516L3.85059 0.980469L3.98047 1.10449L3.85547 1.23242L3.98535 1.35547L3.86133 1.48242L3.99023 1.60547L3.86621 1.7334L3.99512 1.85645L3.87012 1.98438L4 2.10742L3.64941 2.46875L3.28418 2.12109L3.4082 1.99219L3.2793 1.87012L3.40234 1.74219L3.27441 1.62012L3.39746 1.49121L3.26953 1.36914L3.39258 1.24023L3.26465 1.11816L3.38867 0.989258L3.25977 0.867188L3.38379 0.738281L3.25488 0.616211L3.25684 0.613281L3.22949 0.585938L3.10449 0.712891L2.97656 0.587891L2.85156 0.714844L2.72363 0.589844L2.59863 0.716797L2.46973 0.591797L2.34473 0.71875L2.2168 0.59375L2.0918 0.720703L1.73047 0.368164L2.08594 0.0107422L2.21289 0.134766L2.33984 0.00878906L2.4668 0.132812L2.59277 0.0078125L2.71973 0.131836L2.8457 0.00585938L2.97363 0.129883L3.09961 0.00390625L3.22656 0.126953L3.35254 0.00195312L3.47949 0.125977L3.60449 0L3.9668 0.350586Z" fill="#666666"/>
</g>
<g clip-path="url(#clip3_8_817)">
<path d="M6.71582 7.87012L6.58984 7.99414L6.7168 8.12012L6.58984 8.24512L6.7168 8.37109L6.59082 8.49609L6.71777 8.62207L6.59082 8.74707L6.71777 8.87305L6.5918 8.99805L6.71875 9.12402L6.5918 9.24902L6.71875 9.375L6.71582 9.37695L6.74219 9.4043L6.87109 9.28027L6.99512 9.40625L7.12402 9.2832L7.24902 9.40918L7.37793 9.28516L7.50195 9.41113L7.63086 9.28809L7.75488 9.41406L7.88379 9.29102L8.23828 9.64941L7.87598 10L7.75 9.87207L7.62207 9.99707L7.49707 9.87012L7.36914 9.99512L7.24316 9.86719L7.11621 9.99219L6.99121 9.86523L6.86328 9.99023L6.7373 9.8623L6.60938 9.9873L6.48438 9.86035L6.35742 9.98438L6.00293 9.62793L6.13086 9.50195L6.00293 9.375L6.12793 9.25L6.00195 9.125L6.12793 8.99902L6.00195 8.87402L6.12695 8.74805L6.00098 8.62305L6.12695 8.49707L6.00098 8.37207L6.12598 8.24609L6 8.12109L6.12598 7.99512L6 7.87012L6.35742 7.51562L6.71582 7.87012ZM7.22168 7.00098H7.47461V7.25098H7.72852V7.50195H7.98145V7.75293H8.23438V8.00391H8.48828V8.25488H8.74121V8.50586H8.99414V8.75684H9.24805V9.25781H8.74121V9.00684H8.48828V8.75684H8.23438V8.50586H7.98145V8.25488H7.72852V8.00391H7.47461V7.75293H7.22168V7.50195H6.96875V7.25098H6.71582V6.75H7.22168V7.00098ZM9.9668 6.35059L9.83984 6.47754L9.9707 6.60254L9.8457 6.73047L9.97559 6.85352L9.85059 6.98047L9.98047 7.10449L9.85547 7.23242L9.98535 7.35547L9.86133 7.48242L9.99023 7.60547L9.86621 7.7334L9.99512 7.85645L9.87012 7.98438L10 8.10742L9.64941 8.46875L9.28418 8.12109L9.4082 7.99219L9.2793 7.87012L9.40234 7.74219L9.27441 7.62012L9.39746 7.49121L9.26953 7.36914L9.39258 7.24023L9.26465 7.11816L9.38867 6.98926L9.25977 6.86719L9.38379 6.73828L9.25488 6.61621L9.25684 6.61328L9.22949 6.58594L9.10449 6.71289L8.97656 6.58789L8.85156 6.71484L8.72363 6.58984L8.59863 6.7168L8.46973 6.5918L8.34473 6.71875L8.2168 6.59375L8.0918 6.7207L7.73047 6.36816L8.08594 6.01074L8.21289 6.13477L8.33984 6.00879L8.4668 6.13281L8.59277 6.00781L8.71973 6.13184L8.8457 6.00586L8.97363 6.12988L9.09961 6.00391L9.22656 6.12695L9.35254 6.00195L9.47949 6.12598L9.60449 6L9.9668 6.35059Z" fill="#666666"/>
</g>
<g clip-path="url(#clip4_8_817)">
<path d="M0.71582 7.87012L0.589844 7.99414L0.716797 8.12012L0.589844 8.24512L0.716797 8.37109L0.59082 8.49609L0.717773 8.62207L0.59082 8.74707L0.717773 8.87305L0.591797 8.99805L0.71875 9.12402L0.591797 9.24902L0.71875 9.375L0.71582 9.37695L0.742188 9.4043L0.871094 9.28027L0.995117 9.40625L1.12402 9.2832L1.24902 9.40918L1.37793 9.28516L1.50195 9.41113L1.63086 9.28809L1.75488 9.41406L1.88379 9.29102L2.23828 9.64941L1.87598 10L1.75 9.87207L1.62207 9.99707L1.49707 9.87012L1.36914 9.99512L1.24316 9.86719L1.11621 9.99219L0.991211 9.86523L0.863281 9.99023L0.737305 9.8623L0.609375 9.9873L0.484375 9.86035L0.357422 9.98438L0.00292969 9.62793L0.130859 9.50195L0.00292969 9.375L0.12793 9.25L0.00195312 9.125L0.12793 8.99902L0.00195312 8.87402L0.126953 8.74805L0.000976562 8.62305L0.126953 8.49707L0.000976562 8.37207L0.125977 8.24609L0 8.12109L0.125977 7.99512L0 7.87012L0.357422 7.51562L0.71582 7.87012ZM1.22168 7.00098H1.47461V7.25098H1.72852V7.50195H1.98145V7.75293H2.23438V8.00391H2.48828V8.25488H2.74121V8.50586H2.99414V8.75684H3.24805V9.25781H2.74121V9.00684H2.48828V8.75684H2.23438V8.50586H1.98145V8.25488H1.72852V8.00391H1.47461V7.75293H1.22168V7.50195H0.96875V7.25098H0.71582V6.75H1.22168V7.00098ZM3.9668 6.35059L3.83984 6.47754L3.9707 6.60254L3.8457 6.73047L3.97559 6.85352L3.85059 6.98047L3.98047 7.10449L3.85547 7.23242L3.98535 7.35547L3.86133 7.48242L3.99023 7.60547L3.86621 7.7334L3.99512 7.85645L3.87012 7.98438L4 8.10742L3.64941 8.46875L3.28418 8.12109L3.4082 7.99219L3.2793 7.87012L3.40234 7.74219L3.27441 7.62012L3.39746 7.49121L3.26953 7.36914L3.39258 7.24023L3.26465 7.11816L3.38867 6.98926L3.25977 6.86719L3.38379 6.73828L3.25488 6.61621L3.25684 6.61328L3.22949 6.58594L3.10449 6.71289L2.97656 6.58789L2.85156 6.71484L2.72363 6.58984L2.59863 6.7168L2.46973 6.5918L2.34473 6.71875L2.2168 6.59375L2.0918 6.7207L1.73047 6.36816L2.08594 6.01074L2.21289 6.13477L2.33984 6.00879L2.4668 6.13281L2.59277 6.00781L2.71973 6.13184L2.8457 6.00586L2.97363 6.12988L3.09961 6.00391L3.22656 6.12695L3.35254 6.00195L3.47949 6.12598L3.60449 6L3.9668 6.35059Z" fill="#666666"/>
</g>
<g clip-path="url(#clip5_8_817)">
<path d="M6.71582 13.8701L6.58984 13.9941L6.7168 14.1201L6.58984 14.2451L6.7168 14.3711L6.59082 14.4961L6.71777 14.6221L6.59082 14.7471L6.71777 14.873L6.5918 14.998L6.71875 15.124L6.5918 15.249L6.71875 15.375L6.71582 15.377L6.74219 15.4043L6.87109 15.2803L6.99512 15.4062L7.12402 15.2832L7.24902 15.4092L7.37793 15.2852L7.50195 15.4111L7.63086 15.2881L7.75488 15.4141L7.88379 15.291L8.23828 15.6494L7.87598 16L7.75 15.8721L7.62207 15.9971L7.49707 15.8701L7.36914 15.9951L7.24316 15.8672L7.11621 15.9922L6.99121 15.8652L6.86328 15.9902L6.7373 15.8623L6.60938 15.9873L6.48438 15.8604L6.35742 15.9844L6.00293 15.6279L6.13086 15.502L6.00293 15.375L6.12793 15.25L6.00195 15.125L6.12793 14.999L6.00195 14.874L6.12695 14.748L6.00098 14.623L6.12695 14.4971L6.00098 14.3721L6.12598 14.2461L6 14.1211L6.12598 13.9951L6 13.8701L6.35742 13.5156L6.71582 13.8701ZM7.22168 13.001H7.47461V13.251H7.72852V13.502H7.98145V13.7529H8.23438V14.0039H8.48828V14.2549H8.74121V14.5059H8.99414V14.7568H9.24805V15.2578H8.74121V15.0068H8.48828V14.7568H8.23438V14.5059H7.98145V14.2549H7.72852V14.0039H7.47461V13.7529H7.22168V13.502H6.96875V13.251H6.71582V12.75H7.22168V13.001ZM9.9668 12.3506L9.83984 12.4775L9.9707 12.6025L9.8457 12.7305L9.97559 12.8535L9.85059 12.9805L9.98047 13.1045L9.85547 13.2324L9.98535 13.3555L9.86133 13.4824L9.99023 13.6055L9.86621 13.7334L9.99512 13.8564L9.87012 13.9844L10 14.1074L9.64941 14.4688L9.28418 14.1211L9.4082 13.9922L9.2793 13.8701L9.40234 13.7422L9.27441 13.6201L9.39746 13.4912L9.26953 13.3691L9.39258 13.2402L9.26465 13.1182L9.38867 12.9893L9.25977 12.8672L9.38379 12.7383L9.25488 12.6162L9.25684 12.6133L9.22949 12.5859L9.10449 12.7129L8.97656 12.5879L8.85156 12.7148L8.72363 12.5898L8.59863 12.7168L8.46973 12.5918L8.34473 12.7188L8.2168 12.5938L8.0918 12.7207L7.73047 12.3682L8.08594 12.0107L8.21289 12.1348L8.33984 12.0088L8.4668 12.1328L8.59277 12.0078L8.71973 12.1318L8.8457 12.0059L8.97363 12.1299L9.09961 12.0039L9.22656 12.127L9.35254 12.002L9.47949 12.126L9.60449 12L9.9668 12.3506Z" fill="#666666"/>
</g>
<g clip-path="url(#clip6_8_817)">
<path d="M6.71582 13.8701L6.58984 13.9941L6.7168 14.1201L6.58984 14.2451L6.7168 14.3711L6.59082 14.4961L6.71777 14.6221L6.59082 14.7471L6.71777 14.873L6.5918 14.998L6.71875 15.124L6.5918 15.249L6.71875 15.375L6.71582 15.377L6.74219 15.4043L6.87109 15.2803L6.99512 15.4062L7.12402 15.2832L7.24902 15.4092L7.37793 15.2852L7.50195 15.4111L7.63086 15.2881L7.75488 15.4141L7.88379 15.291L8.23828 15.6494L7.87598 16L7.75 15.8721L7.62207 15.9971L7.49707 15.8701L7.36914 15.9951L7.24316 15.8672L7.11621 15.9922L6.99121 15.8652L6.86328 15.9902L6.7373 15.8623L6.60938 15.9873L6.48438 15.8604L6.35742 15.9844L6.00293 15.6279L6.13086 15.502L6.00293 15.375L6.12793 15.25L6.00195 15.125L6.12793 14.999L6.00195 14.874L6.12695 14.748L6.00098 14.623L6.12695 14.4971L6.00098 14.3721L6.12598 14.2461L6 14.1211L6.12598 13.9951L6 13.8701L6.35742 13.5156L6.71582 13.8701ZM7.22168 13.001H7.47461V13.251H7.72852V13.502H7.98145V13.7529H8.23438V14.0039H8.48828V14.2549H8.74121V14.5059H8.99414V14.7568H9.24805V15.2578H8.74121V15.0068H8.48828V14.7568H8.23438V14.5059H7.98145V14.2549H7.72852V14.0039H7.47461V13.7529H7.22168V13.502H6.96875V13.251H6.71582V12.75H7.22168V13.001ZM9.9668 12.3506L9.83984 12.4775L9.9707 12.6025L9.8457 12.7305L9.97559 12.8535L9.85059 12.9805L9.98047 13.1045L9.85547 13.2324L9.98535 13.3555L9.86133 13.4824L9.99023 13.6055L9.86621 13.7334L9.99512 13.8564L9.87012 13.9844L10 14.1074L9.64941 14.4688L9.28418 14.1211L9.4082 13.9922L9.2793 13.8701L9.40234 13.7422L9.27441 13.6201L9.39746 13.4912L9.26953 13.3691L9.39258 13.2402L9.26465 13.1182L9.38867 12.9893L9.25977 12.8672L9.38379 12.7383L9.25488 12.6162L9.25684 12.6133L9.22949 12.5859L9.10449 12.7129L8.97656 12.5879L8.85156 12.7148L8.72363 12.5898L8.59863 12.7168L8.46973 12.5918L8.34473 12.7188L8.2168 12.5938L8.0918 12.7207L7.73047 12.3682L8.08594 12.0107L8.21289 12.1348L8.33984 12.0088L8.4668 12.1328L8.59277 12.0078L8.71973 12.1318L8.8457 12.0059L8.97363 12.1299L9.09961 12.0039L9.22656 12.127L9.35254 12.002L9.47949 12.126L9.60449 12L9.9668 12.3506Z" fill="#666666"/>
</g>
<g clip-path="url(#clip7_8_817)">
<path d="M6.71582 1.87012L6.58984 1.99414L6.7168 2.12012L6.58984 2.24512L6.7168 2.37109L6.59082 2.49609L6.71777 2.62207L6.59082 2.74707L6.71777 2.87305L6.5918 2.99805L6.71875 3.12402L6.5918 3.24902L6.71875 3.375L6.71582 3.37695L6.74219 3.4043L6.87109 3.28027L6.99512 3.40625L7.12402 3.2832L7.24902 3.40918L7.37793 3.28516L7.50195 3.41113L7.63086 3.28809L7.75488 3.41406L7.88379 3.29102L8.23828 3.64941L7.87598 4L7.75 3.87207L7.62207 3.99707L7.49707 3.87012L7.36914 3.99512L7.24316 3.86719L7.11621 3.99219L6.99121 3.86523L6.86328 3.99023L6.7373 3.8623L6.60938 3.9873L6.48438 3.86035L6.35742 3.98438L6.00293 3.62793L6.13086 3.50195L6.00293 3.375L6.12793 3.25L6.00195 3.125L6.12793 2.99902L6.00195 2.87402L6.12695 2.74805L6.00098 2.62305L6.12695 2.49707L6.00098 2.37207L6.12598 2.24609L6 2.12109L6.12598 1.99512L6 1.87012L6.35742 1.51562L6.71582 1.87012ZM7.22168 1.00098H7.47461V1.25098H7.72852V1.50195H7.98145V1.75293H8.23438V2.00391H8.48828V2.25488H8.74121V2.50586H8.99414V2.75684H9.24805V3.25781H8.74121V3.00684H8.48828V2.75684H8.23438V2.50586H7.98145V2.25488H7.72852V2.00391H7.47461V1.75293H7.22168V1.50195H6.96875V1.25098H6.71582V0.75H7.22168V1.00098ZM9.9668 0.350586L9.83984 0.477539L9.9707 0.602539L9.8457 0.730469L9.97559 0.853516L9.85059 0.980469L9.98047 1.10449L9.85547 1.23242L9.98535 1.35547L9.86133 1.48242L9.99023 1.60547L9.86621 1.7334L9.99512 1.85645L9.87012 1.98438L10 2.10742L9.64941 2.46875L9.28418 2.12109L9.4082 1.99219L9.2793 1.87012L9.40234 1.74219L9.27441 1.62012L9.39746 1.49121L9.26953 1.36914L9.39258 1.24023L9.26465 1.11816L9.38867 0.989258L9.25977 0.867188L9.38379 0.738281L9.25488 0.616211L9.25684 0.613281L9.22949 0.585938L9.10449 0.712891L8.97656 0.587891L8.85156 0.714844L8.72363 0.589844L8.59863 0.716797L8.46973 0.591797L8.34473 0.71875L8.2168 0.59375L8.0918 0.720703L7.73047 0.368164L8.08594 0.0107422L8.21289 0.134766L8.33984 0.00878906L8.4668 0.132812L8.59277 0.0078125L8.71973 0.131836L8.8457 0.00585938L8.97363 0.129883L9.09961 0.00390625L9.22656 0.126953L9.35254 0.00195312L9.47949 0.125977L9.60449 0L9.9668 0.350586Z" fill="#666666"/>
</g>
<g clip-path="url(#clip8_8_817)">
<path d="M6.71582 1.87012L6.58984 1.99414L6.7168 2.12012L6.58984 2.24512L6.7168 2.37109L6.59082 2.49609L6.71777 2.62207L6.59082 2.74707L6.71777 2.87305L6.5918 2.99805L6.71875 3.12402L6.5918 3.24902L6.71875 3.375L6.71582 3.37695L6.74219 3.4043L6.87109 3.28027L6.99512 3.40625L7.12402 3.2832L7.24902 3.40918L7.37793 3.28516L7.50195 3.41113L7.63086 3.28809L7.75488 3.41406L7.88379 3.29102L8.23828 3.64941L7.87598 4L7.75 3.87207L7.62207 3.99707L7.49707 3.87012L7.36914 3.99512L7.24316 3.86719L7.11621 3.99219L6.99121 3.86523L6.86328 3.99023L6.7373 3.8623L6.60938 3.9873L6.48438 3.86035L6.35742 3.98438L6.00293 3.62793L6.13086 3.50195L6.00293 3.375L6.12793 3.25L6.00195 3.125L6.12793 2.99902L6.00195 2.87402L6.12695 2.74805L6.00098 2.62305L6.12695 2.49707L6.00098 2.37207L6.12598 2.24609L6 2.12109L6.12598 1.99512L6 1.87012L6.35742 1.51562L6.71582 1.87012ZM7.22168 1.00098H7.47461V1.25098H7.72852V1.50195H7.98145V1.75293H8.23438V2.00391H8.48828V2.25488H8.74121V2.50586H8.99414V2.75684H9.24805V3.25781H8.74121V3.00684H8.48828V2.75684H8.23438V2.50586H7.98145V2.25488H7.72852V2.00391H7.47461V1.75293H7.22168V1.50195H6.96875V1.25098H6.71582V0.75H7.22168V1.00098ZM9.9668 0.350586L9.83984 0.477539L9.9707 0.602539L9.8457 0.730469L9.97559 0.853516L9.85059 0.980469L9.98047 1.10449L9.85547 1.23242L9.98535 1.35547L9.86133 1.48242L9.99023 1.60547L9.86621 1.7334L9.99512 1.85645L9.87012 1.98438L10 2.10742L9.64941 2.46875L9.28418 2.12109L9.4082 1.99219L9.2793 1.87012L9.40234 1.74219L9.27441 1.62012L9.39746 1.49121L9.26953 1.36914L9.39258 1.24023L9.26465 1.11816L9.38867 0.989258L9.25977 0.867188L9.38379 0.738281L9.25488 0.616211L9.25684 0.613281L9.22949 0.585938L9.10449 0.712891L8.97656 0.587891L8.85156 0.714844L8.72363 0.589844L8.59863 0.716797L8.46973 0.591797L8.34473 0.71875L8.2168 0.59375L8.0918 0.720703L7.73047 0.368164L8.08594 0.0107422L8.21289 0.134766L8.33984 0.00878906L8.4668 0.132812L8.59277 0.0078125L8.71973 0.131836L8.8457 0.00585938L8.97363 0.129883L9.09961 0.00390625L9.22656 0.126953L9.35254 0.00195312L9.47949 0.125977L9.60449 0L9.9668 0.350586Z" fill="#666666"/>
</g>
<g clip-path="url(#clip9_8_817)">
<path d="M0.71582 13.8701L0.589844 13.9941L0.716797 14.1201L0.589844 14.2451L0.716797 14.3711L0.59082 14.4961L0.717773 14.6221L0.59082 14.7471L0.717773 14.873L0.591797 14.998L0.71875 15.124L0.591797 15.249L0.71875 15.375L0.71582 15.377L0.742188 15.4043L0.871094 15.2803L0.995117 15.4062L1.12402 15.2832L1.24902 15.4092L1.37793 15.2852L1.50195 15.4111L1.63086 15.2881L1.75488 15.4141L1.88379 15.291L2.23828 15.6494L1.87598 16L1.75 15.8721L1.62207 15.9971L1.49707 15.8701L1.36914 15.9951L1.24316 15.8672L1.11621 15.9922L0.991211 15.8652L0.863281 15.9902L0.737305 15.8623L0.609375 15.9873L0.484375 15.8604L0.357422 15.9844L0.00292969 15.6279L0.130859 15.502L0.00292969 15.375L0.12793 15.25L0.00195312 15.125L0.12793 14.999L0.00195312 14.874L0.126953 14.748L0.000976562 14.623L0.126953 14.4971L0.000976562 14.3721L0.125977 14.2461L0 14.1211L0.125977 13.9951L0 13.8701L0.357422 13.5156L0.71582 13.8701ZM1.22168 13.001H1.47461V13.251H1.72852V13.502H1.98145V13.7529H2.23438V14.0039H2.48828V14.2549H2.74121V14.5059H2.99414V14.7568H3.24805V15.2578H2.74121V15.0068H2.48828V14.7568H2.23438V14.5059H1.98145V14.2549H1.72852V14.0039H1.47461V13.7529H1.22168V13.502H0.96875V13.251H0.71582V12.75H1.22168V13.001ZM3.9668 12.3506L3.83984 12.4775L3.9707 12.6025L3.8457 12.7305L3.97559 12.8535L3.85059 12.9805L3.98047 13.1045L3.85547 13.2324L3.98535 13.3555L3.86133 13.4824L3.99023 13.6055L3.86621 13.7334L3.99512 13.8564L3.87012 13.9844L4 14.1074L3.64941 14.4688L3.28418 14.1211L3.4082 13.9922L3.2793 13.8701L3.40234 13.7422L3.27441 13.6201L3.39746 13.4912L3.26953 13.3691L3.39258 13.2402L3.26465 13.1182L3.38867 12.9893L3.25977 12.8672L3.38379 12.7383L3.25488 12.6162L3.25684 12.6133L3.22949 12.5859L3.10449 12.7129L2.97656 12.5879L2.85156 12.7148L2.72363 12.5898L2.59863 12.7168L2.46973 12.5918L2.34473 12.7188L2.2168 12.5938L2.0918 12.7207L1.73047 12.3682L2.08594 12.0107L2.21289 12.1348L2.33984 12.0088L2.4668 12.1328L2.59277 12.0078L2.71973 12.1318L2.8457 12.0059L2.97363 12.1299L3.09961 12.0039L3.22656 12.127L3.35254 12.002L3.47949 12.126L3.60449 12L3.9668 12.3506Z" fill="#666666"/>
</g>
<g clip-path="url(#clip10_8_817)">
<path d="M0.71582 13.8701L0.589844 13.9941L0.716797 14.1201L0.589844 14.2451L0.716797 14.3711L0.59082 14.4961L0.717773 14.6221L0.59082 14.7471L0.717773 14.873L0.591797 14.998L0.71875 15.124L0.591797 15.249L0.71875 15.375L0.71582 15.377L0.742188 15.4043L0.871094 15.2803L0.995117 15.4062L1.12402 15.2832L1.24902 15.4092L1.37793 15.2852L1.50195 15.4111L1.63086 15.2881L1.75488 15.4141L1.88379 15.291L2.23828 15.6494L1.87598 16L1.75 15.8721L1.62207 15.9971L1.49707 15.8701L1.36914 15.9951L1.24316 15.8672L1.11621 15.9922L0.991211 15.8652L0.863281 15.9902L0.737305 15.8623L0.609375 15.9873L0.484375 15.8604L0.357422 15.9844L0.00292969 15.6279L0.130859 15.502L0.00292969 15.375L0.12793 15.25L0.00195312 15.125L0.12793 14.999L0.00195312 14.874L0.126953 14.748L0.000976562 14.623L0.126953 14.4971L0.000976562 14.3721L0.125977 14.2461L0 14.1211L0.125977 13.9951L0 13.8701L0.357422 13.5156L0.71582 13.8701ZM1.22168 13.001H1.47461V13.251H1.72852V13.502H1.98145V13.7529H2.23438V14.0039H2.48828V14.2549H2.74121V14.5059H2.99414V14.7568H3.24805V15.2578H2.74121V15.0068H2.48828V14.7568H2.23438V14.5059H1.98145V14.2549H1.72852V14.0039H1.47461V13.7529H1.22168V13.502H0.96875V13.251H0.71582V12.75H1.22168V13.001ZM3.9668 12.3506L3.83984 12.4775L3.9707 12.6025L3.8457 12.7305L3.97559 12.8535L3.85059 12.9805L3.98047 13.1045L3.85547 13.2324L3.98535 13.3555L3.86133 13.4824L3.99023 13.6055L3.86621 13.7334L3.99512 13.8564L3.87012 13.9844L4 14.1074L3.64941 14.4688L3.28418 14.1211L3.4082 13.9922L3.2793 13.8701L3.40234 13.7422L3.27441 13.6201L3.39746 13.4912L3.26953 13.3691L3.39258 13.2402L3.26465 13.1182L3.38867 12.9893L3.25977 12.8672L3.38379 12.7383L3.25488 12.6162L3.25684 12.6133L3.22949 12.5859L3.10449 12.7129L2.97656 12.5879L2.85156 12.7148L2.72363 12.5898L2.59863 12.7168L2.46973 12.5918L2.34473 12.7188L2.2168 12.5938L2.0918 12.7207L1.73047 12.3682L2.08594 12.0107L2.21289 12.1348L2.33984 12.0088L2.4668 12.1328L2.59277 12.0078L2.71973 12.1318L2.8457 12.0059L2.97363 12.1299L3.09961 12.0039L3.22656 12.127L3.35254 12.002L3.47949 12.126L3.60449 12L3.9668 12.3506Z" fill="#666666"/>
</g>
<g clip-path="url(#clip11_8_817)">
<path d="M0.71582 13.8701L0.589844 13.9941L0.716797 14.1201L0.589844 14.2451L0.716797 14.3711L0.59082 14.4961L0.717773 14.6221L0.59082 14.7471L0.717773 14.873L0.591797 14.998L0.71875 15.124L0.591797 15.249L0.71875 15.375L0.71582 15.377L0.742188 15.4043L0.871094 15.2803L0.995117 15.4062L1.12402 15.2832L1.24902 15.4092L1.37793 15.2852L1.50195 15.4111L1.63086 15.2881L1.75488 15.4141L1.88379 15.291L2.23828 15.6494L1.87598 16L1.75 15.8721L1.62207 15.9971L1.49707 15.8701L1.36914 15.9951L1.24316 15.8672L1.11621 15.9922L0.991211 15.8652L0.863281 15.9902L0.737305 15.8623L0.609375 15.9873L0.484375 15.8604L0.357422 15.9844L0.00292969 15.6279L0.130859 15.502L0.00292969 15.375L0.12793 15.25L0.00195312 15.125L0.12793 14.999L0.00195312 14.874L0.126953 14.748L0.000976562 14.623L0.126953 14.4971L0.000976562 14.3721L0.125977 14.2461L0 14.1211L0.125977 13.9951L0 13.8701L0.357422 13.5156L0.71582 13.8701ZM1.22168 13.001H1.47461V13.251H1.72852V13.502H1.98145V13.7529H2.23438V14.0039H2.48828V14.2549H2.74121V14.5059H2.99414V14.7568H3.24805V15.2578H2.74121V15.0068H2.48828V14.7568H2.23438V14.5059H1.98145V14.2549H1.72852V14.0039H1.47461V13.7529H1.22168V13.502H0.96875V13.251H0.71582V12.75H1.22168V13.001ZM3.9668 12.3506L3.83984 12.4775L3.9707 12.6025L3.8457 12.7305L3.97559 12.8535L3.85059 12.9805L3.98047 13.1045L3.85547 13.2324L3.98535 13.3555L3.86133 13.4824L3.99023 13.6055L3.86621 13.7334L3.99512 13.8564L3.87012 13.9844L4 14.1074L3.64941 14.4688L3.28418 14.1211L3.4082 13.9922L3.2793 13.8701L3.40234 13.7422L3.27441 13.6201L3.39746 13.4912L3.26953 13.3691L3.39258 13.2402L3.26465 13.1182L3.38867 12.9893L3.25977 12.8672L3.38379 12.7383L3.25488 12.6162L3.25684 12.6133L3.22949 12.5859L3.10449 12.7129L2.97656 12.5879L2.85156 12.7148L2.72363 12.5898L2.59863 12.7168L2.46973 12.5918L2.34473 12.7188L2.2168 12.5938L2.0918 12.7207L1.73047 12.3682L2.08594 12.0107L2.21289 12.1348L2.33984 12.0088L2.4668 12.1328L2.59277 12.0078L2.71973 12.1318L2.8457 12.0059L2.97363 12.1299L3.09961 12.0039L3.22656 12.127L3.35254 12.002L3.47949 12.126L3.60449 12L3.9668 12.3506Z" fill="#666666"/>
</g>
<g clip-path="url(#clip12_8_817)">
<path d="M0.71582 13.8701L0.589844 13.9941L0.716797 14.1201L0.589844 14.2451L0.716797 14.3711L0.59082 14.4961L0.717773 14.6221L0.59082 14.7471L0.717773 14.873L0.591797 14.998L0.71875 15.124L0.591797 15.249L0.71875 15.375L0.71582 15.377L0.742188 15.4043L0.871094 15.2803L0.995117 15.4062L1.12402 15.2832L1.24902 15.4092L1.37793 15.2852L1.50195 15.4111L1.63086 15.2881L1.75488 15.4141L1.88379 15.291L2.23828 15.6494L1.87598 16L1.75 15.8721L1.62207 15.9971L1.49707 15.8701L1.36914 15.9951L1.24316 15.8672L1.11621 15.9922L0.991211 15.8652L0.863281 15.9902L0.737305 15.8623L0.609375 15.9873L0.484375 15.8604L0.357422 15.9844L0.00292969 15.6279L0.130859 15.502L0.00292969 15.375L0.12793 15.25L0.00195312 15.125L0.12793 14.999L0.00195312 14.874L0.126953 14.748L0.000976562 14.623L0.126953 14.4971L0.000976562 14.3721L0.125977 14.2461L0 14.1211L0.125977 13.9951L0 13.8701L0.357422 13.5156L0.71582 13.8701ZM1.22168 13.001H1.47461V13.251H1.72852V13.502H1.98145V13.7529H2.23438V14.0039H2.48828V14.2549H2.74121V14.5059H2.99414V14.7568H3.24805V15.2578H2.74121V15.0068H2.48828V14.7568H2.23438V14.5059H1.98145V14.2549H1.72852V14.0039H1.47461V13.7529H1.22168V13.502H0.96875V13.251H0.71582V12.75H1.22168V13.001ZM3.9668 12.3506L3.83984 12.4775L3.9707 12.6025L3.8457 12.7305L3.97559 12.8535L3.85059 12.9805L3.98047 13.1045L3.85547 13.2324L3.98535 13.3555L3.86133 13.4824L3.99023 13.6055L3.86621 13.7334L3.99512 13.8564L3.87012 13.9844L4 14.1074L3.64941 14.4688L3.28418 14.1211L3.4082 13.9922L3.2793 13.8701L3.40234 13.7422L3.27441 13.6201L3.39746 13.4912L3.26953 13.3691L3.39258 13.2402L3.26465 13.1182L3.38867 12.9893L3.25977 12.8672L3.38379 12.7383L3.25488 12.6162L3.25684 12.6133L3.22949 12.5859L3.10449 12.7129L2.97656 12.5879L2.85156 12.7148L2.72363 12.5898L2.59863 12.7168L2.46973 12.5918L2.34473 12.7188L2.2168 12.5938L2.0918 12.7207L1.73047 12.3682L2.08594 12.0107L2.21289 12.1348L2.33984 12.0088L2.4668 12.1328L2.59277 12.0078L2.71973 12.1318L2.8457 12.0059L2.97363 12.1299L3.09961 12.0039L3.22656 12.127L3.35254 12.002L3.47949 12.126L3.60449 12L3.9668 12.3506Z" fill="#666666"/>
</g>
<g clip-path="url(#clip13_8_817)">
<path d="M0.71582 13.8701L0.589844 13.9941L0.716797 14.1201L0.589844 14.2451L0.716797 14.3711L0.59082 14.4961L0.717773 14.6221L0.59082 14.7471L0.717773 14.873L0.591797 14.998L0.71875 15.124L0.591797 15.249L0.71875 15.375L0.71582 15.377L0.742188 15.4043L0.871094 15.2803L0.995117 15.4062L1.12402 15.2832L1.24902 15.4092L1.37793 15.2852L1.50195 15.4111L1.63086 15.2881L1.75488 15.4141L1.88379 15.291L2.23828 15.6494L1.87598 16L1.75 15.8721L1.62207 15.9971L1.49707 15.8701L1.36914 15.9951L1.24316 15.8672L1.11621 15.9922L0.991211 15.8652L0.863281 15.9902L0.737305 15.8623L0.609375 15.9873L0.484375 15.8604L0.357422 15.9844L0.00292969 15.6279L0.130859 15.502L0.00292969 15.375L0.12793 15.25L0.00195312 15.125L0.12793 14.999L0.00195312 14.874L0.126953 14.748L0.000976562 14.623L0.126953 14.4971L0.000976562 14.3721L0.125977 14.2461L0 14.1211L0.125977 13.9951L0 13.8701L0.357422 13.5156L0.71582 13.8701ZM1.22168 13.001H1.47461V13.251H1.72852V13.502H1.98145V13.7529H2.23438V14.0039H2.48828V14.2549H2.74121V14.5059H2.99414V14.7568H3.24805V15.2578H2.74121V15.0068H2.48828V14.7568H2.23438V14.5059H1.98145V14.2549H1.72852V14.0039H1.47461V13.7529H1.22168V13.502H0.96875V13.251H0.71582V12.75H1.22168V13.001ZM3.9668 12.3506L3.83984 12.4775L3.9707 12.6025L3.8457 12.7305L3.97559 12.8535L3.85059 12.9805L3.98047 13.1045L3.85547 13.2324L3.98535 13.3555L3.86133 13.4824L3.99023 13.6055L3.86621 13.7334L3.99512 13.8564L3.87012 13.9844L4 14.1074L3.64941 14.4688L3.28418 14.1211L3.4082 13.9922L3.2793 13.8701L3.40234 13.7422L3.27441 13.6201L3.39746 13.4912L3.26953 13.3691L3.39258 13.2402L3.26465 13.1182L3.38867 12.9893L3.25977 12.8672L3.38379 12.7383L3.25488 12.6162L3.25684 12.6133L3.22949 12.5859L3.10449 12.7129L2.97656 12.5879L2.85156 12.7148L2.72363 12.5898L2.59863 12.7168L2.46973 12.5918L2.34473 12.7188L2.2168 12.5938L2.0918 12.7207L1.73047 12.3682L2.08594 12.0107L2.21289 12.1348L2.33984 12.0088L2.4668 12.1328L2.59277 12.0078L2.71973 12.1318L2.8457 12.0059L2.97363 12.1299L3.09961 12.0039L3.22656 12.127L3.35254 12.002L3.47949 12.126L3.60449 12L3.9668 12.3506Z" fill="#666666"/>
</g>
<g clip-path="url(#clip14_8_817)">
<path d="M12.7158 1.87012L12.5898 1.99414L12.7168 2.12012L12.5898 2.24512L12.7168 2.37109L12.5908 2.49609L12.7178 2.62207L12.5908 2.74707L12.7178 2.87305L12.5918 2.99805L12.7188 3.12402L12.5918 3.24902L12.7188 3.375L12.7158 3.37695L12.7422 3.4043L12.8711 3.28027L12.9951 3.40625L13.124 3.2832L13.249 3.40918L13.3779 3.28516L13.502 3.41113L13.6309 3.28809L13.7549 3.41406L13.8838 3.29102L14.2383 3.64941L13.876 4L13.75 3.87207L13.6221 3.99707L13.4971 3.87012L13.3691 3.99512L13.2432 3.86719L13.1162 3.99219L12.9912 3.86523L12.8633 3.99023L12.7373 3.8623L12.6094 3.9873L12.4844 3.86035L12.3574 3.98438L12.0029 3.62793L12.1309 3.50195L12.0029 3.375L12.1279 3.25L12.002 3.125L12.1279 2.99902L12.002 2.87402L12.127 2.74805L12.001 2.62305L12.127 2.49707L12.001 2.37207L12.126 2.24609L12 2.12109L12.126 1.99512L12 1.87012L12.3574 1.51562L12.7158 1.87012ZM13.2217 1.00098H13.4746V1.25098H13.7285V1.50195H13.9814V1.75293H14.2344V2.00391H14.4883V2.25488H14.7412V2.50586H14.9941V2.75684H15.248V3.25781H14.7412V3.00684H14.4883V2.75684H14.2344V2.50586H13.9814V2.25488H13.7285V2.00391H13.4746V1.75293H13.2217V1.50195H12.9688V1.25098H12.7158V0.75H13.2217V1.00098ZM15.9668 0.350586L15.8398 0.477539L15.9707 0.602539L15.8457 0.730469L15.9756 0.853516L15.8506 0.980469L15.9805 1.10449L15.8555 1.23242L15.9854 1.35547L15.8613 1.48242L15.9902 1.60547L15.8662 1.7334L15.9951 1.85645L15.8701 1.98438L16 2.10742L15.6494 2.46875L15.2842 2.12109L15.4082 1.99219L15.2793 1.87012L15.4023 1.74219L15.2744 1.62012L15.3975 1.49121L15.2695 1.36914L15.3926 1.24023L15.2646 1.11816L15.3887 0.989258L15.2598 0.867188L15.3838 0.738281L15.2549 0.616211L15.2568 0.613281L15.2295 0.585938L15.1045 0.712891L14.9766 0.587891L14.8516 0.714844L14.7236 0.589844L14.5986 0.716797L14.4697 0.591797L14.3447 0.71875L14.2168 0.59375L14.0918 0.720703L13.7305 0.368164L14.0859 0.0107422L14.2129 0.134766L14.3398 0.00878906L14.4668 0.132812L14.5928 0.0078125L14.7197 0.131836L14.8457 0.00585938L14.9736 0.129883L15.0996 0.00390625L15.2266 0.126953L15.3525 0.00195312L15.4795 0.125977L15.6045 0L15.9668 0.350586Z" fill="#666666"/>
</g>
<defs>
<clipPath id="clip0_8_817">
<rect width="4" height="4" fill="white" transform="translate(12 12)"/>
</clipPath>
<clipPath id="clip1_8_817">
<rect width="4" height="4" fill="white" transform="translate(12 6)"/>
</clipPath>
<clipPath id="clip2_8_817">
<rect width="4" height="4" fill="white"/>
</clipPath>
<clipPath id="clip3_8_817">
<rect width="4" height="4" fill="white" transform="translate(6 6)"/>
</clipPath>
<clipPath id="clip4_8_817">
<rect width="4" height="4" fill="white" transform="translate(0 6)"/>
</clipPath>
<clipPath id="clip5_8_817">
<rect width="4" height="4" fill="white" transform="translate(6 12)"/>
</clipPath>
<clipPath id="clip6_8_817">
<rect width="4" height="4" fill="white" transform="translate(6 12)"/>
</clipPath>
<clipPath id="clip7_8_817">
<rect width="4" height="4" fill="white" transform="translate(6)"/>
</clipPath>
<clipPath id="clip8_8_817">
<rect width="4" height="4" fill="white" transform="translate(6)"/>
</clipPath>
<clipPath id="clip9_8_817">
<rect width="4" height="4" fill="white" transform="translate(0 12)"/>
</clipPath>
<clipPath id="clip10_8_817">
<rect width="4" height="4" fill="white" transform="translate(0 12)"/>
</clipPath>
<clipPath id="clip11_8_817">
<rect width="4" height="4" fill="white" transform="translate(0 12)"/>
</clipPath>
<clipPath id="clip12_8_817">
<rect width="4" height="4" fill="white" transform="translate(0 12)"/>
</clipPath>
<clipPath id="clip13_8_817">
<rect width="4" height="4" fill="white" transform="translate(0 12)"/>
</clipPath>
<clipPath id="clip14_8_817">
<rect width="4" height="4" fill="white" transform="translate(12)"/>
</clipPath>
</defs>
</svg>
